#!OML:ASF I:\Actors\actors\Patient Classification 2\Patient 1\Session 1\actor1.ASF
:FULLY-SPECIFIED
:DEGREES
263
root -0.369403 18.0424 5.7716 1.42972 -31.01 -1.42147
lowerback 2.83223 -8.6158 -1.59257
upperback -1.14706 -11.5252 1.49531
thorax -2.1298 -5.7242 2.87605
lowerneck -10.1161 4.45719 16.0953
upperneck 28.8585 0.770696 4.50516
head 11.4017 2.39069 -0.968741
rclavicle 5.57529e-016 -1.46107e-014
rhumerus 37.927 42.0877 3.70673
rradius 139.48
rwrist -91.1708
rhand -0.70485 -56.2018
rfingers 7.12502
rthumb 24.9151 -84.5978
lclavicle 5.57529e-016 -1.46107e-014
lhumerus 35.1764 34.5759 91.9384
lradius 52.9741
lwrist 73.2169
lhand -33.5822 2.65996
lfingers 7.12502
lthumb -6.7763 32.5315
rfemur 9.74343 17.5243 13.1185
rtibia -19.3528
rfoot 3.09205 -7.10125
rtoes -0.201333
lfemur 15.0886 17.6531 -13.8069
ltibia -3.18055e-015
lfoot -18.8527 15.2334
ltoes 6.14289
264
root -0.374715 18.0418 5.77079 1.44225 -31.1103 -1.39714
lowerback 2.8048 -8.58815 -1.60245
upperback -1.15089 -11.489 1.46087
thorax -2.12574 -5.70609 2.84183
lowerneck -10.1298 4.46148 16.3025
upperneck 28.8976 0.785042 4.2982
head 11.425 2.39798 -1.07541
rclavicle 1.23903e-013 -7.95139e-016
rhumerus 37.7724 41.902 3.5567
rradius 139.515
rwrist -91.2771
rhand -0.959361 -56.3804
rfingers 7.12502
rthumb 24.6712 -84.81
lclavicle 1.23903e-013 -7.95139e-016
lhumerus 35.2373 34.6182 92.0461
lradius 52.9673
lwrist 73.0799
lhand -33.6303 2.65333
lfingers 7.12502
lthumb -6.82266 32.5234
rfemur 9.7111 17.5642 13.0979
rtibia -19.3962
rfoot 3.1439 -7.07492
rtoes -0.013814
lfemur 15.089 17.761 -13.809
ltibia -2.22639e-014
lfoot -18.8381 15.2271
ltoes 6.20303
265
root -0.379797 18.042 5.76935 1.46537 -31.1891 -1.35913
lowerback 2.74727 -8.56744 -1.62351
upperback -1.14161 -11.4622 1.41568
thorax -2.09097 -5.69331 2.79643
lowerneck -10.1819 4.46859 16.4353
upperneck 28.9428 0.780167 4.19317
head 11.4564 2.40126 -1.13448
rclavicle -1.5207e-014 -1.68967e-015
rhumerus 37.6202 41.6831 3.39683
rradius 139.534
rwrist -91.3151
rhand -1.30124 -56.2559
rfingers 7.12502
rthumb 24.3434 -84.7299
lclavicle -1.5207e-014 -1.68967e-015
lhumerus 35.2549 34.5863 91.9535
lradius 52.9546
lwrist 73.1403
lhand -33.6605 2.56183
lfingers 7.12502
lthumb -6.85183 32.4309
rfemur 9.66186 17.5009 13.0612
rtibia -19.441
rfoot 3.26744 -6.96343
rtoes -0.127726
lfemur 15.0571 17.8509 -13.835
ltibia 2.22639e-014
lfoot -18.8238 15.2246
ltoes 6.23789
266
root -0.384766 18.0419 5.76725 1.47549 -31.2548 -1.33783
lowerback 2.75655 -8.5561 -1.66571
upperback -1.14371 -11.4492 1.39057
thorax -2.09599 -5.68617 2.79456
lowerneck -10.2371 4.45383 16.3909
upperneck 29.0009 0.7465 4.20618
head 11.4869 2.38693 -1.12595
rclavicle 4.74241e-014 1.2921e-015
rhumerus 37.4971 41.4407 3.22955
rradius 139.498
rwrist -91.1594
rhand -1.13212 -56.1108
rfingers 7.12502
rthumb 24.5056 -84.563
lclavicle 4.74241e-014 1.2921e-015
lhumerus 35.1864 34.5501 91.7423
lradius 52.9662
lwrist 73.2994
lhand -33.644 2.53022
lfingers 7.12502
lthumb -6.83596 32.3999
rfemur 9.6422 17.4592 13.0499
rtibia -19.4847
rfoot 3.36029 -6.89019
rtoes -0.137268
lfemur 15.0507 17.9248 -13.8364
ltibia 4.13472e-014
lfoot -18.8531 15.2098
ltoes 6.31151
267
root -0.390762 18.0427 5.76556 1.49653 -31.3133 -1.33032
lowerback 2.77736 -8.54407 -1.73248
upperback -1.17447 -11.4361 1.39853
thorax -2.12557 -5.67785 2.8429
lowerneck -10.227 4.43069 16.285
upperneck 29.0295 0.727225 4.23751
head 11.4912 2.37188 -1.10052
rclavicle 6.93207e-014 6.06293e-015
rhumerus 37.3945 41.243 3.05992
rradius 139.471
rwrist -91.1225
rhand -1.19419 -56.0988
rfingers 7.12502
rthumb 24.4461 -84.559
lclavicle 6.93207e-014 6.06293e-015
lhumerus 35.1113 34.5942 91.6718
lradius 52.9724
lwrist 73.2467
lhand -33.534 2.55004
lfingers 7.12502
lthumb -6.72969 32.4231
rfemur 9.62509 17.4762 13.0536
rtibia -19.517
rfoot 3.3999 -6.87486
rtoes 0.00117397
lfemur 15.0463 17.9908 -13.8221
ltibia -1.90833e-014
lfoot -18.868 15.1965
ltoes 6.24383
268
root -0.397043 18.0433 5.76493 1.54409 -31.3577 -1.36017
lowerback 2.75688 -8.52775 -1.78163
upperback -1.19931 -11.4157 1.42686
thorax -2.12587 -5.66678 2.89467
lowerneck -10.1435 4.44274 16.2768
upperneck 28.9996 0.770161 4.22932
head 11.4647 2.38634 -1.09818
rclavicle 7.91761e-014 -3.37934e-015
rhumerus 37.2807 41.0722 2.8632
rradius 139.435
rwrist -91.2279
rhand -1.51729 -56.1049
rfingers 7.12502
rthumb 24.1363 -84.6065
lclavicle 7.91761e-014 -3.37934e-015
lhumerus 35.0996 34.6598 91.713
lradius 52.9437
lwrist 73.1503
lhand -33.4647 2.55596
lfingers 7.12502
lthumb -6.66278 32.4311
rfemur 9.59849 17.5343 13.0906
rtibia -19.5308
rfoot 3.39225 -6.89028
rtoes 0.178169
lfemur 15.0325 18.043 -13.7733
ltibia 2.54444e-014
lfoot -18.8611 15.1634
ltoes 6.19373
269
root -0.40212 18.043 5.76511 1.58314 -31.4118 -1.4216
lowerback 2.75438 -8.50805 -1.79148
upperback -1.21059 -11.3894 1.45382
thorax -2.1303 -5.65332 2.92655
lowerneck -10.0962 4.44705 16.1995
upperneck 28.9773 0.787125 4.29346
head 11.4456 2.39103 -1.06099
rclavicle -9.69634e-014 1.53064e-014
rhumerus 37.196 40.9114 2.65947
rradius 139.36
rwrist -91.2319
rhand -1.44255 -56.0365
rfingers 7.12502
rthumb 24.208 -84.5286
lclavicle -9.69634e-014 1.53064e-014
lhumerus 35.1614 34.7495 91.8156
lradius 52.9245
lwrist 73.115
lhand -33.4769 2.51982
lfingers 7.12502
lthumb -6.67456 32.3946
rfemur 9.58575 17.5552 13.1631
rtibia -19.5298
rfoot 3.41555 -6.85892
rtoes 0.167447
lfemur 15.0519 18.1023 -13.6872
ltibia -4.77083e-015
lfoot -18.8796 15.114
ltoes 6.46834
270
root -0.406788 18.0433 5.76663 1.61047 -31.4626 -1.47336
lowerback 2.75879 -8.48499 -1.77953
upperback -1.22201 -11.3581 1.46603
thorax -2.14618 -5.63742 2.93375
lowerneck -10.1259 4.40819 15.9964
upperneck 28.9817 0.733727 4.42025
head 11.4441 2.36063 -0.988964
rclavicle 1.61713e-013 3.77691e-015
rhumerus 37.1202 40.7691 2.46944
rradius 139.318
rwrist -91.186
rhand -1.24512 -56.0257
rfingers 7.12502
rthumb 24.3972 -84.4925
lclavicle 1.61713e-013 3.77691e-015
lhumerus 35.2398 34.8433 91.9569
lradius 52.9424
lwrist 73.0313
lhand -33.5553 2.4545
lfingers 7.12502
lthumb -6.75029 32.3269
rfemur 9.57883 17.4821 13.2272
rtibia -19.5228
rfoot 3.49719 -6.7571
rtoes 0.0293125
lfemur 15.0853 18.1604 -13.6181
ltibia 4.92986e-014
lfoot -18.8785 15.1122
ltoes 6.5648
271
root -0.41127 18.0445 5.76945 1.63749 -31.4877 -1.48207
lowerback 2.73731 -8.44384 -1.76956
upperback -1.24023 -11.303 1.44646
thorax -2.16215 -5.6096 2.90626
lowerneck -10.1726 4.36283 15.9316
upperneck 28.973 0.663514 4.46314
head 11.4439 2.32746 -0.971717
rclavicle 5.52163e-014 1.98785e-015
rhumerus 36.9015 40.6852 2.24647
rradius 139.357
rwrist -91.1722
rhand -1.31359 -56.0578
rfingers 7.12502
rthumb 24.3316 -84.5334
lclavicle 5.52163e-014 1.98785e-015
lhumerus 35.2151 34.7967 91.9414
lradius 52.9617
lwrist 73.0046
lhand -33.6964 2.51983
lfingers 7.12502
lthumb -6.88649 32.3878
rfemur 9.55828 17.4465 13.2395
rtibia -19.5138
rfoot 3.51457 -6.70833
rtoes 0.0168964
lfemur 15.0834 18.199 -13.6095
ltibia 1.27222e-014
lfoot -18.8437 15.1478
ltoes 6.27742
272
root -0.415256 18.0454 5.77228 1.66575 -31.5122 -1.45365
lowerback 2.68344 -8.40012 -1.77792
upperback -1.25446 -11.2449 1.41462
thorax -2.15516 -5.58061 2.87009
lowerneck -10.1288 4.36374 16.0626
upperneck 28.8851 0.683031 4.37453
head 11.4047 2.33462 -1.02396
rclavicle 9.56341e-014 -3.8266e-015
rhumerus 36.6575 40.6389 1.99853
rradius 139.406
rwrist -91.1596
rhand -1.62687 -56.1111
rfingers 7.12502
rthumb 24.0312 -84.6266
lclavicle 9.56341e-014 -3.8266e-015
lhumerus 35.1006 34.666 91.7444
lradius 52.9844
lwrist 73.1183
lhand -33.7769 2.58617
lfingers 7.12502
lthumb -6.96416 32.4516
rfemur 9.51373 17.505 13.2062
rtibia -19.5078
rfoot 3.47828 -6.73783
rtoes 0.13158
lfemur 15.0512 18.239 -13.6416
ltibia 4.77083e-015
lfoot -18.835 15.1492
ltoes 6.17071
273
root -0.419013 18.0457 5.77511 1.69712 -31.5403 -1.4436
lowerback 2.6285 -8.4109 -1.8053
upperback -1.25585 -11.259 1.45292
thorax -2.11247 -5.58813 2.91338
lowerneck -10.0021 4.42293 16.0513
upperneck 28.7446 0.848021 4.27009
head 11.3309 2.38697 -1.0425
rclavicle 5.67918e-014 -3.77691e-015
rhumerus 36.7083 40.5727 1.90811
rradius 139.402
rwrist -91.1297
rhand -2.09769 -56.1921
rfingers 7.12502
rthumb 23.5797 -84.7664
lclavicle 5.67918e-014 -3.77691e-015
lhumerus 35.0475 34.7438 91.6161
lradius 53.0245
lwrist 73.2575
lhand -33.7799 2.56341
lfingers 7.12502
lthumb -6.96712 32.4288
rfemur 9.47885 17.568 13.1903
rtibia -19.5126
rfoot 3.46384 -6.77156
rtoes 0.382547
lfemur 15.0321 18.2805 -13.6495
ltibia 1.11319e-014
lfoot -18.8564 15.1188
ltoes 6.2132
274
root -0.42219 18.0462 5.77822 1.72517 -31.5516 -1.45228
lowerback 2.61397 -8.45093 -1.84198
upperback -1.26493 -11.3124 1.53448
thorax -2.08728 -5.61466 3.01267
lowerneck -9.95846 4.4578 15.7731
upperneck 28.6977 0.965393 4.31353
head 11.2999 2.41343 -0.968935
rclavicle -3.2332e-014 -2.88238e-015
rhumerus 36.873 40.5103 1.93199
rradius 139.396
rwrist -91.0966
rhand -2.39733 -56.2019
rfingers 7.12502
rthumb 23.2923 -84.813
lclavicle -3.2332e-014 -2.88238e-015
lhumerus 35.1443 35.0187 91.7271
lradius 53.038
lwrist 73.2421
lhand -33.746 2.65943
lfingers 7.12502
lthumb -6.93442 32.5259
rfemur 9.47323 17.5624 13.1957
rtibia -19.5267
rfoot 3.49471 -6.76008
rtoes 0.501712
lfemur 15.02 18.3055 -13.6414
ltibia -2.70347e-014
lfoot -18.8337 15.1317
ltoes 5.90473
275
root -0.425069 18.0472 5.78041 1.75645 -31.5423 -1.44567
lowerback 2.61481 -8.46797 -1.87763
upperback -1.27993 -11.336 1.57073
thorax -2.08772 -5.62581 3.06904
lowerneck -9.9708 4.46986 15.6689
upperneck 28.6921 1.01027 4.30062
head 11.2981 2.42188 -0.951477
rclavicle 1.42248e-014 -6.55989e-015
rhumerus 36.8435 40.4391 1.8506
rradius 139.446
rwrist -91.1026
rhand -2.44931 -56.199
rfingers 7.12502
rthumb 23.2424 -84.8164
lclavicle 1.42248e-014 -6.55989e-015
lhumerus 35.3548 35.2625 92.0008
lradius 52.9793
lwrist 72.9841
lhand -33.4038 2.60392
lfingers 7.12502
lthumb -6.60406 32.4809
rfemur 9.46175 17.5333 13.1871
rtibia -19.5425
rfoot 3.53321 -6.74194
rtoes 0.325911
lfemur 14.9798 18.3127 -13.657
ltibia -1.74931e-014
lfoot -18.7639 15.1844
ltoes 5.44478
276
root -0.427361 18.0479 5.78215 1.79162 -31.5338 -1.42862
lowerback 2.58719 -8.46819 -1.90168
upperback -1.28137 -11.3367 1.57832
thorax -2.06774 -5.62627 3.08437
lowerneck -9.96263 4.48704 15.6724
upperneck 28.6555 1.06404 4.22777
head 11.2838 2.43683 -0.97241
rclavicle -8.91037e-015 -1.00386e-014
rhumerus 36.7184 40.375 1.71035
rradius 139.503
rwrist -91.0749
rhand -2.49645 -56.1957
rfingers 7.12502
rthumb 23.1972 -84.8188
lclavicle -8.91037e-015 -1.00386e-014
lhumerus 35.4923 35.368 92.1139
lradius 52.8658
lwrist 72.7661
lhand -32.8725 2.30532
lfingers 7.12502
lthumb -6.09108 32.1978
rfemur 9.43352 17.5324 13.165
rtibia -19.5586
rfoot 3.5309 -6.76231
rtoes 0.231182
lfemur 14.9336 18.3206 -13.6814
ltibia -4.92986e-014
lfoot -18.7562 15.1763
ltoes 5.47007
277
root -0.428614 18.0485 5.78552 1.83632 -31.5194 -1.42473
lowerback 2.53186 -8.46259 -1.87491
upperback -1.29007 -11.3276 1.57451
thorax -2.0525 -5.62239 3.05837
lowerneck -9.98841 4.47238 15.5442
upperneck 28.6948 1.05777 4.24931
head 11.2989 2.42596 -0.944533
rclavicle 4.46543e-014 -1.80894e-014
rhumerus 36.6263 40.4062 1.57986
rradius 139.482
rwrist -90.9446
rhand -2.57486 -56.1051
rfingers 7.12502
rthumb 23.1219 -84.7376
lclavicle 4.46543e-014 -1.80894e-014
lhumerus 35.4195 35.321 91.9623
lradius 52.8542
lwrist 72.8191
lhand -32.797 2.16477
lfingers 7.12502
lthumb -6.01821 32.0593
rfemur 9.40167 17.5064 13.1495
rtibia -19.58
rfoot 3.52622 -6.78011
rtoes 0.25316
lfemur 14.8895 18.3231 -13.6949
ltibia -1.59028e-014
lfoot -18.7939 15.1371
ltoes 5.7479
